<?xml version="1.0" encoding="utf-8"?>
<!-- Generator: Adobe Illustrator 25.2.2, SVG Export Plug-In . SVG Version: 6.00 Build 0)  -->
<svg version="1.1" id="Layer_1" xmlns="http://www.w3.org/2000/svg" xmlns:xlink="http://www.w3.org/1999/xlink" x="0px" y="0px"
	 viewBox="0 0 43 42.9" style="enable-background:new 0 0 43 42.9;" xml:space="preserve">
<style type="text/css">
	.st0{fill:#ffffff;}
</style>
<g>
	<path class="st0" d="M21,0h1.1C27.8,0,33,2.4,37.6,7.1C41.2,11.4,43,16,43,20.9v0.9c0,1-0.7,1.8-2.2,2.3H40c-1.6-0.3-2.4-1.3-2.4-3
		c0-4.9-2.2-9.1-6.5-12.7c-3-2.1-6.2-3.1-9.4-3.1h-0.5c-5.4,0-9.8,2.5-13.4,7.4c-1.6,2.8-2.5,5.6-2.5,8.5v0.5
		c0,5.4,2.5,9.8,7.4,13.4c2.8,1.7,5.9,2.5,9.3,2.5c1.3,0.6,2,1.3,2,2.3v0.7c0,1.1-0.7,1.8-2.2,2.3h-0.9c-5.7,0-10.9-2.4-15.5-7.2
		C1.8,31.4,0,26.8,0,21.9v-1.1C0,15.1,2.4,9.9,7.2,5.3C11.5,1.8,16.1,0,21,0z"/>
</g>
<path class="st0" d="M28,10.1c1.7,0.3,2.5,1.2,2.5,2.5v0.3c0,1-1.2,2.8-3.5,5.3c-2.1,2-3.8,3.3-5.1,3.9v0.1c1.6,0.7,3.7,2.4,6.2,5.1
	c1.6,2,2.4,3.4,2.4,4.2v0.4c0,1.1-0.7,1.8-2.1,2.3H28c-1.2,0-2.1-0.7-2.7-2c-1.8-3-4.8-5.3-9-6.7c-1.7-0.5-3.4-0.7-5.3-0.7
	c-1.3-0.6-2-1.3-2-2.3v-0.6c0-1.1,0.7-1.9,2.2-2.3c5.9,0,10.5-2.4,13.9-7.3C25.8,10.8,26.8,10.1,28,10.1z"/>
</svg>
