<?xml version="1.0" encoding="UTF-8" standalone="no"?>
<!DOCTYPE svg PUBLIC "-//W3C//DTD SVG 1.1//EN" "http://www.w3.org/Graphics/SVG/1.1/DTD/svg11.dtd">
<svg width="100%" height="100%" viewBox="0 0 842 294" version="1.1" xmlns="http://www.w3.org/2000/svg" xmlns:xlink="http://www.w3.org/1999/xlink" xml:space="preserve" xmlns:serif="http://www.serif.com/" style="fill-rule:evenodd;clip-rule:evenodd;stroke-linejoin:round;stroke-miterlimit:2;">
    <g transform="matrix(1,0,0,1,-55,-290)">
        <path d="M706.31,408.92C702.35,409.51 690.54,410 680.06,410L661,410L661,314L682.75,314.01C706.85,314.03 712.97,314.93 722.88,319.94C734.34,325.73 741.62,335.62 744.42,349.21C748.13,367.29 744.5,383.66 734.26,395.06C728.5,401.47 716.57,407.38 706.31,408.92ZM507.01,503.75L507,538L488,538L488,501.18C488,460.84 488.24,458.73 493.95,449.74C504.41,433.24 532.99,431.41 546.76,446.36L550.74,450.67L554.9,446.27C557.18,443.84 561.63,440.66 564.78,439.18C572.2,435.7 584.49,435.41 593,438.5C600.48,441.22 607.92,448.64 611.09,456.53C613.44,462.4 613.49,463.11 613.8,500.29L614.11,538.07L594.5,537.5L594,501C593.64,474.8 593.15,463.9 592.27,462.36C590.23,458.79 585.16,455.12 581.26,454.39C574.29,453.08 566.03,456.68 562.66,462.5C561.87,463.87 561.34,476.01 561,501L560.5,537.5L541.09,538.07L540.8,501.79C540.47,461.51 540.39,461.04 533.7,456.96C523.68,450.85 510.99,455.18 508.07,465.7C507.42,468.02 507.01,482.79 507.01,503.75ZM647,508L647,538L628,538L628,505.55C628,471.1 628.48,466.24 632.75,457.11C639.73,442.22 658.27,433.97 678.72,436.66C697.03,439.08 709.06,449.28 713.57,466.21C714.64,470.25 714.98,479.36 714.99,504.75L715,538L696,538L696,508L647,508ZM752.05,504L751.5,537.5L741.75,537.79L732,538.07L732,438L755.95,438C779.87,438 787.59,438.77 793.5,441.76C799.49,444.78 803.94,449.18 806.7,454.79C809.23,459.94 809.5,461.52 809.5,471C809.5,480.48 809.23,482.06 806.7,487.21C803.91,492.88 799.53,497.18 793.23,500.4C792.1,500.98 791.23,501.26 790.91,501.85C790.17,503.16 792.14,506 799.85,517.09C800.64,518.23 801.49,519.46 802.41,520.78C808.23,529.18 813,536.49 813,537.03C813,537.6 808.47,538 802.01,538L791.01,538L785.71,529.75C782.79,525.21 778.03,517.56 775.13,512.75L769.87,504L752.05,504ZM448.53,538.91C428.87,542.54 411.54,535.66 404.88,521.58C403.3,518.24 402,514.04 402,512.25L402,509L420.84,509L421.49,511.96C422.34,515.81 427.99,520.72 432.58,521.58C438.22,522.64 447.97,521.41 450.9,519.27C452.33,518.22 454.34,515.68 455.37,513.6C458.99,506.31 454.49,500.31 443.71,498.07C416.8,492.47 411.41,490 406.79,481.14C404.4,476.53 404,474.6 404,467.55C404,460.41 404.4,458.52 406.99,453.33C410.57,446.18 415.85,441.63 423.76,438.9C436.83,434.4 449.88,435.54 459.98,442.06C466.53,446.3 470.41,451.37 472.57,458.56L472.66,458.85C473.83,462.75 474.44,464.79 473.69,465.85C472.87,467 470.42,467 465.32,467L464.97,467C457.23,467 455.86,466.75 455.41,465.25C453.11,457.56 448.16,454 439.75,454C429.89,454 423.01,459.01 423,466.2C422.99,473.75 426.48,475.96 444.26,479.63C450.99,481.02 458.63,483.08 461.24,484.2C474.34,489.83 479.56,506.53 472.99,521.81C469.32,530.34 460.13,536.77 448.53,538.91ZM623.73,407.59C618.19,410.12 616.22,410.46 606,410.68C594.3,410.93 588.67,409.97 582.26,406.64C577.38,404.11 572.21,399.22 569.46,394.53C564.34,385.79 564.02,383.01 564.01,347.25L564,314L581.85,314L582.2,346.25C582.59,382.1 582.98,384.49 589.34,389.28C601.23,398.25 621.51,393.62 624.97,381.15C625.56,379.04 625.99,364.13 625.99,345.75L626,314L645,314L644.98,344.75C644.96,384.74 644,389.74 634.38,400.03C631.68,402.91 627.55,405.84 623.73,407.59ZM447.36,410.56C438.39,412.27 435.46,412.27 427.39,410.51C419.87,408.88 414.55,406.21 410.1,401.84C405.98,397.79 402.02,389.68 402.01,385.25L402,382L419.84,382L420.47,384.87C421.79,390.87 427.44,394 436.97,394C445.61,394 450.31,392.19 452.97,387.81C455.41,383.82 455.5,381.86 453.43,377.87C451.49,374.11 448.09,372.66 434.9,369.99C423.88,367.76 415.06,364.31 411.12,360.69C407.18,357.07 404.02,349.19 404.01,342.93C403.99,330.46 409.47,321.35 420.37,315.77C425.68,313.05 427.77,312.57 436,312.22C446.63,311.76 453.36,313.58 460.64,318.86C465.14,322.12 469.66,329.87 470.88,336.41L471.74,341L463.12,340.96L454.5,340.93L452.5,336.71C449.97,331.39 445.47,329 438,329.02C430.41,329.04 424.99,332.15 423.1,337.58C421.9,341.03 421.9,342.01 423.1,344.5C425.2,348.85 429.51,350.8 443.14,353.55C457.9,356.54 461.66,358.05 466.36,362.86C470.88,367.49 473,373.52 473,381.75C473,396.82 463.52,407.47 447.36,410.56ZM867.72,498L867.46,537.5L857.73,537.79L848,538.07L848,456L818,456L818,438L897,438L897,456L882.5,456C871.57,456 868,456.31 867.99,457.25C867.98,457.94 867.86,476.27 867.72,498ZM796.01,368.5L796,410L787.17,410C782.31,410 778.03,409.7 777.67,409.33C777.3,408.97 777,399.67 777,388.68L777,368.69L760.68,344.1C751.71,330.57 743.56,318.26 742.57,316.75L740.77,314L762.89,314L771.69,328.52C772.81,330.36 773.85,332.07 774.8,333.64C784.13,349.04 785.88,351.92 786.66,351.68C786.92,351.6 787.08,351.17 787.37,350.74C787.99,349.84 793.37,341.2 799.33,331.55L810.16,314L831.96,314L826.62,322.25C823.69,326.79 815.6,339.05 808.65,349.5L796.01,368.5ZM525.02,331L524.5,409.5L506,410.08L506,331L478,331L478,314L554,314L554,331L525.02,331ZM679,330.77L679,392.2L692.25,391.82C703.39,391.51 706.3,391.08 710.5,389.17C721.65,384.1 726.39,375.82 726.35,361.5C726.3,347.08 721.57,338.83 710.5,333.86C706.35,331.99 703.24,331.54 692.25,331.19L679,330.77ZM647,482.18L647,490L696.3,490L695.67,480.45C694.94,469.25 692.91,463.88 687.68,459.29C683.04,455.22 677.24,453.65 669,454.24C653.65,455.33 647,463.77 647,482.18ZM751.75,485.42C752.16,485.83 758.8,486.02 766.5,485.84C778.89,485.54 780.91,485.24 784.08,483.27C788.49,480.53 790,477.38 790,470.9C790,464.16 787.8,460.27 782.68,457.94C779.23,456.38 776.09,456.04 764.75,456.02L751,456L751,470.33C751,478.22 751.34,485.01 751.75,485.42Z" style="fill:rgb(10,90,79);fill-rule:nonzero;"/>
        <path d="M238.37,581.75L237.77,584L167.03,584L166.5,524.5L145.47,545.25C133.9,556.66 124,566 123.46,566C122.92,566 111.34,554.85 97.73,541.23L72.97,516.45L88.8,500.73L104.64,485L111.27,485C137.42,485 184.39,473.83 221.5,458.79C236,452.91 265.69,438.34 279,430.56C286.73,426.05 290.95,424.12 291.86,424.69C293.09,425.46 297.35,432.13 300.18,437.75C301.66,440.66 302.09,440.56 304.56,436.71C305.69,434.94 311.77,425.85 318.07,416.5C332.27,395.43 337,387.87 337,386.26C337,384.72 331.73,384.73 298.01,386.34C276.15,387.38 273.49,387.69 273.19,389.23C273.01,390.18 274.68,393.98 276.89,397.69C280.53,403.76 280.78,404.59 279.42,406.09C277.21,408.54 257.2,420.05 243.98,426.49C237.67,429.56 231.77,432.48 230.87,432.97C227.42,434.87 206.88,443.01 193.5,447.8C153.32,462.16 106.45,468.92 77.13,464.58C65.18,462.81 57,460.53 55.77,458.63C55.36,458.01 55.02,445.01 55.02,429.75L55,402L85.08,402C104.52,402 115.05,401.65 114.83,401.01C114.65,400.46 105.34,390.81 94.14,379.57L73.78,359.12L75.82,356.31C76.95,354.76 88.25,343.15 100.93,330.51L124,307.52L144.76,328.26C156.18,339.67 165.85,349 166.26,349C166.67,349 167,335.73 167,319.5L167,290L239,290L239,319.5C239,335.73 239.33,349 239.74,349C240.15,349 249.82,339.67 261.24,328.26L282,307.52L307,332.5C320.75,346.24 332,357.88 332,358.37C332,359.12 322.55,370.88 315.62,378.76C314.4,380.15 313.99,381.37 314.56,381.92C315.11,382.44 321.04,382.44 328.93,381.92C336.31,381.42 342.57,381.24 342.83,381.5C343.1,381.76 341.81,384.35 339.98,387.24C338.15,390.13 335.32,394.9 333.7,397.84L330.75,403.18L351.03,401.74L350.76,437.12L350.5,472.5L320.75,472.76C297.69,472.97 291,473.31 291,474.28C291,474.98 297.13,481.61 304.62,489.02C312.11,496.43 321.42,505.77 325.3,509.77L332.37,517.03L307.49,541.52C293.81,554.98 282.17,566 281.63,566C281.09,566 271.75,557.12 260.86,546.26C249.98,535.41 240.61,526.37 240.04,526.18C239.34,525.95 239,534.61 238.99,552.67C238.98,567.42 238.7,580.51 238.37,581.75Z" style="fill:rgb(238,187,29);"/>
    </g>
</svg>
