<svg xmlns="http://www.w3.org/2000/svg" width="256" height="256" viewBox="0 0 256 256">
  <defs>
    <linearGradient id="logosReactIcon0" x1="-.828%" x2="57.636%" y1="7.652%" y2="78.411%">
      <stop offset="0%" stop-color="#61dafb" />
      <stop offset="100%" stop-color="#007acc" />
    </linearGradient>
  </defs>
  <path fill="url(#logosReactIcon0)" d="M210.483 73.824c-2.43-.85-4.93-1.659-7.5-2.429.43-1.78.82-3.539 1.16-5.26 6.61-33.048.23-59.592-18.13-70.011-4.35-2.507-9.37-3.714-14.94-3.714v14.93c3.18 0 5.73.578 7.78 1.711 9.28 5.345 13.24 22.693 9.72 45.044-.24 1.524-.52 3.091-.84 4.686-12.18-2.77-25.61-4.768-39.81-5.802-8.47-11.62-17.27-22.21-26.08-31.193 20.41-19.03 39.64-29.45 52.31-29.45V.401c-17.17 0-39.01 11.209-61.08 32.324-22.06-21.1-43.9-32.29-61.08-32.29v14.93c12.64 0 31.87 10.42 52.25 29.31-8.78 8.96-17.54 19.52-25.96 31.07-14.26 1.05-27.74 3.03-39.97 5.82-.33-1.6-.6-3.14-.85-4.66-3.54-22.35.42-39.7 9.67-45.05 2.02-1.15 4.61-1.72 7.8-1.72V-.341c-5.59 0-10.61 1.198-14.98 3.708C38.046 13.797 31.7 33.285 34.885 57.025c.33 2.35.77 4.78 1.29 7.26-2.64.77-5.18 1.57-7.58 2.4-23.85 8.32-38.91 21.73-38.91 35.65 0 14.15 15.8 28.21 40.46 36.61 2.18.72 4.42 1.4 6.73 2.05-.74 3.03-1.37 6-1.9 8.91-4.15 23.65-1.02 42.52 8.96 48.75 4.35 2.71 9.5 4.07 15.27 4.07 17.14 0 39.1-11.19 61.2-32.23 22.1 21.07 44.06 32.24 61.2 32.24 5.66 0 10.71-1.33 15.05-3.99 10.02-6.19 13.2-25.15 8.96-48.9-.51-2.77-1.12-5.64-1.83-8.6 2.32-.66 4.57-1.36 6.76-2.08 24.54-8.42 40.26-22.46 40.26-36.57 0-13.91-14.99-27.29-38.72-35.61Zm-14.24 62.63c-1.97.64-3.99 1.24-6.06 1.81-4.51-14.3-10.61-29.45-18.01-44.73 7.06-15.08 13.05-29.86 17.52-43.97 2.3.64 4.52 1.31 6.64 2.01 19.92 6.63 32.33 16.38 32.33 24.72 0 8.76-13.08 19.1-33.42 26.16Zm-24.91 43.03c2.5 12.56 2.78 23.62.95 31.5-1.64 7.21-4.79 11.71-8.28 11.71-8.01 0-22.44-10.05-37.28-26.46 5.27-5.76 10.57-12.21 15.82-19.28 8.33-.74 16.31-1.82 23.81-3.18 1.19 3.63 2.23 7.18 3.09 10.71Zm-90.91 31.5c-3.49 0-6.65-4.5-8.3-11.71-1.84-7.88-1.55-18.94.95-31.51.86-3.49 1.86-7.1 2.99-10.76 7.45 1.33 15.38 2.36 23.6 3.07 5.27 7.12 10.61 13.62 15.9 19.42-14.81 16.32-29.17 26.48-37.14 26.48Zm-24.95-74.54c-2.09-.57-4.11-1.17-6.05-1.8-20.49-7.01-33.71-17.38-33.71-26.19 0-8.62 12.49-18.41 32.27-25.05 2.08-.7 4.26-1.37 6.5-2.01 4.46 14.12 10.35 28.88 17.33 43.93-7.51 15.38-13.68 30.65-18.34 45.12Zm12.29-73.25c-3.24-7.95-5.92-15.65-8.09-22.99 7.73-1.69 15.95-3.05 24.46-4.03-2.57 3.64-5.11 7.39-7.6 11.26-3.22 4.88-6.24 9.82-9.03 14.81Zm62.16 58.9c-5.42-8.29-10.5-16.67-15.18-25.05 4.63-8.26 9.67-16.61 15.06-24.84 5.39 8.22 10.44 16.56 15.03 24.82-4.62 8.42-9.72 16.84-15.21 25.07Zm52.3-84.95c8.64.99 16.8 2.36 24.44 4.06-2.16 7.28-4.86 14.93-8.04 22.84-2.75-4.94-5.73-9.83-8.91-14.65-2.56-3.87-5.16-7.66-7.79-11.45Zm-15.1-15.94c-3.82 6.2-7.72 12.68-11.66 19.34-7.18-.33-14.43-.51-21.66-.51-7.15 0-14.35.19-21.43.54-3.96-6.62-7.83-13.16-11.61-19.29 11.17-.97 22.56-1.46 34-1.46 11.5 0 22.86.5 34.02 1.38Zm-57.77 15.96c-2.99 4.81-5.93 9.68-8.82 14.59-3.19 4.99-6.29 10.06-9.24 15.15-4.06-8.22-7.85-16.4-11.31-24.43 8.74-1.53 17.8-2.67 27.1-3.31Zm-39.73 9.27c-2.5-6.85-4.66-13.58-6.46-20.11 6.26-1.45 12.9-2.7 19.8-3.73-3.07 4.89-6.01 9.86-8.82 14.9-1.57 2.7-3.08 5.42-4.52 8.15Zm-12.92 83.01c2.14-7.33 4.81-15.03 7.95-22.96 2.85 4.94 5.87 9.87 9.05 14.79 2.55 3.81 5.18 7.59 7.86 11.35-8.66-.99-16.86-2.36-24.64-4.05Zm15.18 15.93c3.84-6.25 7.8-12.72 11.86-19.39 7.03.35 14.23.53 21.53.53 7.37 0 14.79-.21 22.16-.58 4.11 6.75 8.05 13.31 11.81 19.5-11.05.96-22.39 1.46-33.85 1.46-11.49 0-22.87-.5-34.51-1.52Zm57.63-15.97c3.21-5.11 6.31-10.24 9.26-15.38 4.01 8.31 7.85 16.53 11.39 24.52-8.71 1.49-17.78 2.62-27.08 3.29Zm39.76-9.34c2.61 7.49 4.77 14.81 6.49 21.8-6.16 1.41-12.77 2.63-19.73 3.64 3.05-4.96 6-9.95 8.84-15.02 1.58-2.71 3.09-5.44 4.54-8.17Zm12.91-83.05c-2.12 7.19-4.77 14.84-7.91 22.79-2.92-4.86-5.99-9.76-9.17-14.6-2.63-3.85-5.28-7.63-7.93-11.33 8.66 1.01 16.86 2.38 24.64 4.14Zm-15.14-15.9c-3.87 6.27-7.87 12.77-11.94 19.45-7.16-.37-14.4-.56-21.59-.56-7.19 0-14.33.18-21.28.52-4.14-6.79-8.14-13.28-11.97-19.39 11.06-.98 22.39-1.49 33.87-1.49 11.49 0 22.86.5 34.51 1.47Z" />
  <path fill="#61dafb" d="M128 163c19.33 0 35-15.67 35-35s-15.67-35-35-35-35 15.67-35 35 15.67 35 35 35Z" />
</svg>
